<?xml version="1.0" standalone="no"?>
<!DOCTYPE svg PUBLIC "-//W3C//DTD SVG 20010904//EN"
 "http://www.w3.org/TR/2001/REC-SVG-20010904/DTD/svg10.dtd">
<svg version="1.0" xmlns="http://www.w3.org/2000/svg"
 width="192.000000pt" height="192.000000pt" viewBox="0 0 192.000000 192.000000"
 preserveAspectRatio="xMidYMid meet">
<metadata>
Created by potrace 1.11, written by Peter Selinger 2001-2013
</metadata>
<g transform="translate(0.000000,192.000000) scale(0.100000,-0.100000)"
fill="#000000" stroke="none">
<path d="M0 960 l0 -960 960 0 960 0 0 960 0 960 -960 0 -960 0 0 -960z m1193
331 l147 -122 0 -51 0 -51 -23 21 c-13 12 -26 22 -30 22 -4 0 -6 -82 -5 -181
l3 -182 100 -28 c93 -26 240 -82 257 -98 4 -4 -50 8 -120 25 -218 55 -332 68
-577 68 -211 0 -255 -4 -425 -39 -70 -15 45 26 133 46 66 16 97 28 97 38 0 12
-16 13 -95 7 -52 -3 -131 -13 -176 -22 -45 -8 -83 -13 -85 -11 -4 4 99 36 176
55 59 14 29 27 -59 25 -74 -2 -145 -12 -216 -29 -16 -4 -17 -3 -5 5 8 6 52 20
98 32 l82 22 0 129 c0 70 -4 128 -8 128 -4 0 -13 -5 -20 -12 -9 -9 -12 -3 -12
28 0 39 3 43 117 136 l116 97 29 -20 29 -21 36 29 c91 72 79 68 118 38 l35
-26 53 45 c44 37 54 43 67 32 8 -7 81 -68 163 -135z"/>
</g>
</svg>
